<?xml version="1.0" standalone="no"?>
<!DOCTYPE svg PUBLIC "-//W3C//DTD SVG 20010904//EN"
 "http://www.w3.org/TR/2001/REC-SVG-20010904/DTD/svg10.dtd">
<svg version="1.0" xmlns="http://www.w3.org/2000/svg"
 width="468.000000pt" height="468.000000pt" viewBox="0 0 468.000000 468.000000"
 preserveAspectRatio="xMidYMid meet">
<metadata>
Created by potrace 1.11, written by Peter Selinger 2001-2013
</metadata>
<g transform="translate(0.000000,468.000000) scale(0.100000,-0.100000)"
fill="#000000" stroke="none">
<path d="M2249 4056 c-2 -2 -32 -7 -65 -10 -350 -34 -726 -223 -991 -499 -245
-255 -393 -560 -447 -917 -14 -95 -15 -385 -2 -460 26 -140 45 -218 81 -325
78 -231 239 -477 435 -661 219 -205 525 -360 817 -413 32 -6 69 -14 83 -17 14
-3 104 -7 200 -9 300 -5 496 39 765 170 170 84 293 172 436 314 273 274 421
573 478 973 9 64 7 364 -3 428 -90 563 -423 1019 -920 1260 -174 84 -296 122
-506 156 -42 7 -355 15 -361 10z m332 -121 c364 -50 682 -212 929 -472 234
-248 384 -570 417 -898 13 -125 7 -329 -12 -428 -45 -231 -114 -402 -240 -592
-350 -527 -986 -789 -1600 -658 -38 8 -78 16 -88 18 -39 9 -177 60 -257 97
-249 114 -505 343 -657 588 -291 471 -304 1085 -32 1563 77 136 149 230 268
347 247 245 593 410 914 436 40 4 73 8 75 9 5 5 235 -3 283 -10z"/>
<path d="M1451 3324 c-91 -24 -150 -76 -178 -159 -21 -64 -22 -67 -27 -273 -6
-203 -10 -232 -44 -294 -24 -46 -69 -78 -117 -83 -11 -1 -24 -3 -28 -4 -4 0
-6 -54 -5 -118 l3 -116 29 -4 c55 -8 103 -40 124 -85 27 -57 32 -91 37 -282 7
-250 22 -315 87 -376 51 -48 118 -70 234 -77 l90 -5 0 118 -1 119 -50 3 c-64
5 -96 20 -113 54 -8 16 -14 83 -17 171 -5 137 -7 164 -20 261 -9 62 -50 139
-98 183 l-42 39 43 40 c62 56 96 136 108 254 2 14 5 90 8 170 3 80 8 156 11
169 9 49 51 72 140 75 l30 1 2 118 1 118 -76 -2 c-43 -1 -101 -8 -131 -15z"/>
<path d="M3120 3224 l0 -119 51 -3 c64 -3 100 -19 116 -52 7 -15 14 -94 17
-195 3 -94 8 -179 10 -190 19 -87 29 -122 45 -153 20 -39 77 -102 92 -102 5 0
9 -7 9 -15 0 -8 -4 -15 -8 -15 -18 0 -77 -68 -98 -115 -30 -64 -43 -162 -49
-348 -3 -104 -9 -156 -20 -176 -16 -32 -54 -49 -120 -53 l-40 -3 0 -115 0
-115 87 1 c152 1 245 48 285 143 26 62 32 111 37 316 5 172 16 241 47 291 20
34 70 63 113 66 33 3 36 12 35 135 l-1 102 -32 7 c-59 12 -96 36 -121 78 -30
52 -35 87 -40 271 -8 276 -19 324 -86 393 -58 59 -89 70 -236 79 l-93 5 0
-118z"/>
<path d="M2474 3077 c-60 -55 -69 -177 -19 -262 17 -30 21 -45 14 -58 -17 -30
-12 -104 10 -150 12 -24 46 -69 77 -99 45 -44 57 -63 61 -96 5 -37 1 -49 -35
-104 -74 -114 -93 -193 -70 -287 28 -111 176 -178 279 -126 64 34 99 103 106
214 4 56 17 107 48 191 23 63 45 129 49 145 3 17 9 41 12 55 8 40 5 142 -7
177 -6 20 -7 44 -1 65 12 43 6 77 -18 108 -11 14 -27 40 -36 58 -9 18 -27 35
-40 38 -13 3 -24 10 -24 14 0 19 -55 60 -80 60 -15 0 -38 8 -51 19 -35 27 -65
34 -90 21 -18 -10 -25 -8 -48 14 -15 15 -43 28 -64 30 -32 5 -43 0 -73 -27z
m110 -70 c27 -36 34 -128 12 -162 -25 -38 -58 -33 -84 14 -58 102 7 235 72
148z m135 -40 c22 -41 14 -110 -14 -121 -44 -16 -74 83 -40 131 18 25 37 22
54 -10z m101 -32 c27 -32 16 -105 -15 -105 -31 0 -48 83 -23 108 16 16 23 15
38 -3z m72 -72 c4 -48 -13 -80 -34 -67 -9 6 -11 46 -2 68 8 22 34 20 36 -1z
m-151 -68 c53 -6 134 -50 170 -94 55 -67 46 -186 -26 -381 -20 -52 -37 -108
-40 -125 -2 -16 -4 -30 -5 -30 -1 0 -3 -28 -5 -62 -7 -113 -50 -158 -142 -151
-139 12 -165 152 -58 309 35 52 46 77 49 115 5 73 -10 110 -67 168 -73 74 -78
81 -87 122 -10 44 3 85 33 104 25 16 118 39 130 33 4 -2 26 -6 48 -8z m199 -4
c0 -25 -10 -51 -20 -51 -11 0 -20 39 -13 56 8 21 33 17 33 -5z"/>
<path d="M2227 2915 c-15 -8 -34 -21 -43 -29 -10 -10 -22 -13 -37 -8 -12 5
-28 7 -34 6 -7 -1 -17 -2 -22 -3 -5 0 -17 -8 -26 -17 -9 -9 -33 -20 -54 -25
-26 -6 -56 -26 -93 -61 -95 -93 -127 -159 -106 -220 6 -17 5 -41 -3 -70 -10
-38 -13 -115 -5 -158 13 -71 28 -123 71 -235 26 -70 33 -101 39 -185 11 -144
73 -213 189 -211 74 1 133 28 165 74 30 44 36 70 36 142 0 70 -18 122 -74 208
-60 92 -55 124 33 212 77 77 106 164 79 235 -8 20 -4 34 17 70 21 37 26 57 26
120 0 63 -4 81 -25 112 -22 33 -62 58 -94 58 -6 0 -23 -7 -39 -15z m60 -63
c13 -8 45 -77 39 -83 -2 -2 -6 -20 -9 -39 -9 -68 -50 -109 -85 -84 -42 29 -40
141 3 188 26 28 33 30 52 18z m-144 -49 c22 -25 17 -111 -7 -128 -10 -8 -24
-11 -31 -9 -15 6 -34 46 -31 65 8 45 30 89 46 89 4 0 14 -8 23 -17z m-113 -53
c25 -47 -10 -124 -41 -93 -16 16 -16 78 1 97 17 21 27 20 40 -4z m-70 -90 c0
-9 -6 -25 -14 -36 -14 -18 -15 -18 -26 11 -8 22 -8 36 0 55 11 24 12 24 26 5
8 -10 14 -26 14 -35z m-50 -64 c0 -6 -4 -17 -9 -24 -14 -22 -34 13 -26 45 6
27 7 27 21 9 8 -11 14 -25 14 -30z m335 -10 c29 -23 35 -33 35 -66 0 -55 -12
-79 -64 -130 -67 -64 -89 -104 -92 -163 -2 -57 7 -82 52 -147 65 -92 80 -163
50 -236 -20 -47 -69 -76 -130 -76 -77 0 -113 52 -122 175 -4 42 -19 108 -36
157 -27 75 -46 136 -65 205 -13 50 -12 152 3 181 44 86 145 136 266 130 55 -3
74 -8 103 -30z"/>
</g>
</svg>
