<?xml version="1.0" standalone="no"?>
<!DOCTYPE svg PUBLIC "-//W3C//DTD SVG 20010904//EN"
 "http://www.w3.org/TR/2001/REC-SVG-20010904/DTD/svg10.dtd">
<svg version="1.0" xmlns="http://www.w3.org/2000/svg"
 width="512.000000pt" height="512.000000pt" viewBox="0 0 512.000000 512.000000"
 preserveAspectRatio="xMidYMid meet">
<metadata>
Created by potrace 1.11, written by Peter Selinger 2001-2013
</metadata>
<g transform="translate(0.000000,512.000000) scale(0.100000,-0.100000)"
fill="#000000" stroke="none">
<path d="M1955 5076 c-247 -118 -342 -560 -174 -806 50 -73 133 -117 214 -114
121 5 252 134 309 306 31 93 39 145 38 237 -3 137 -45 254 -119 328 -76 77
-173 95 -268 49z"/>
<path d="M2974 5085 c-112 -49 -194 -210 -195 -385 -1 -96 7 -147 37 -238 95
-284 342 -394 498 -222 199 221 112 712 -149 836 -57 27 -140 31 -191 9z"/>
<path d="M1261 4873 c-158 -80 -222 -344 -129 -528 55 -108 151 -144 252 -95
156 75 218 380 111 542 -57 86 -157 121 -234 81z"/>
<path d="M3712 4873 c-46 -22 -94 -82 -117 -145 -15 -40 -20 -77 -20 -153 1
-87 5 -108 29 -164 36 -84 69 -126 124 -158 153 -90 307 58 301 291 -4 151
-65 271 -165 325 -46 25 -107 27 -152 4z"/>
<path d="M730 4687 c-130 -63 -173 -316 -78 -457 74 -109 196 -106 268 6 108
171 28 454 -130 462 -19 0 -46 -4 -60 -11z"/>
<path d="M4271 4680 c-73 -46 -110 -118 -118 -230 -12 -162 69 -298 180 -302
166 -6 249 298 129 475 -47 69 -131 94 -191 57z"/>
<path d="M354 4420 c-12 -5 -35 -25 -50 -46 -27 -35 -29 -44 -29 -128 0 -75 4
-99 23 -133 96 -181 276 -136 275 68 0 164 -110 283 -219 239z"/>
<path d="M4642 4401 c-22 -17 -43 -39 -47 -50 -3 -12 -10 -21 -14 -21 -15 0
-35 -93 -34 -157 1 -106 56 -173 142 -173 36 0 79 31 113 81 35 52 48 98 48
170 0 148 -105 224 -208 150z"/>
<path d="M160 4113 c-61 -19 -97 -71 -107 -150 -15 -129 75 -236 160 -191 75
39 107 181 62 268 -26 50 -80 85 -115 73z"/>
<path d="M4901 4103 c-72 -36 -100 -184 -50 -272 43 -77 110 -92 164 -38 72
72 73 208 2 282 -40 41 -72 49 -116 28z"/>
<path d="M1340 3909 c-315 -28 -651 -137 -876 -284 -98 -64 -244 -205 -298
-288 -104 -160 -154 -347 -151 -567 2 -90 12 -222 21 -265 3 -11 9 -44 15 -72
30 -155 93 -319 239 -618 235 -484 288 -662 305 -1030 7 -155 13 -196 37 -275
97 -315 325 -493 620 -484 463 13 682 225 692 671 5 200 -37 345 -146 507 -22
32 -90 117 -152 190 -213 251 -269 347 -295 512 -17 110 4 325 38 392 5 9 23
45 39 79 60 119 130 196 387 424 122 109 201 198 248 279 45 79 78 196 81 294
10 281 -110 448 -373 518 -85 23 -279 30 -431 17z"/>
<path d="M3469 3916 c-2 -2 -23 -6 -46 -10 -234 -31 -390 -158 -433 -351 -27
-120 -16 -275 28 -389 50 -127 136 -234 311 -387 225 -195 307 -288 370 -416
48 -97 71 -191 75 -310 8 -234 -65 -401 -277 -633 -54 -59 -166 -199 -194
-243 -96 -151 -129 -277 -126 -482 5 -364 159 -574 473 -646 98 -23 268 -30
358 -15 204 34 382 200 466 434 33 92 44 164 51 330 5 116 15 200 40 342 18
102 121 387 180 500 59 112 200 413 232 495 89 227 126 417 126 650 1 125 -8
199 -34 295 -114 425 -545 721 -1184 815 -101 15 -406 30 -416 21z"/>
</g>
</svg>
